<?xml version="1.0" encoding="utf-8"?>
<!-- Uploaded to: SVG Repo, www.svgrepo.com, Generator: SVG Repo Mixer Tools -->
<svg fill="#000000" width="800px" height="800px" viewBox="-4 0 32 32" version="1.1" xmlns="http://www.w3.org/2000/svg">
<title>bell</title>
<path d="M8.813 25.25h-6.406c-1.25 0-2.344-0.906-2.406-2.188 1.875-1.406 3.063-3.156 3.844-5.094 0.75-1.938 1.031-4.063 1.188-6.313 0.125-1.531 1.125-2.906 2.5-3.938 0.781-0.563 1.625-1.031 2.5-1.313 0-0.094-0.063-0.188-0.063-0.25 0-1.125 0.906-2 2.031-2s2.031 0.875 2.031 2c0 0.063-0.063 0.188-0.063 0.25 0.875 0.281 1.75 0.75 2.531 1.281 1.375 1 2.469 2.375 2.469 3.875 0.125 2.219 0.469 4.438 1.25 6.375 0.781 1.969 1.969 3.75 3.781 5.125-0.063 1.281-1.156 2.188-2.406 2.188h-6.406c-0.313 1.5-1.594 2.594-3.156 2.594s-2.875-1.094-3.219-2.594zM3.219 23.063h17.563c-1.406-1.563-2.375-3.344-2.938-5.25-0.594-1.875-0.875-3.875-1-5.938-0.063-1-0.844-1.906-1.813-2.594-0.938-0.688-2.063-1.063-3-1.063-0.875 0-2.031 0.438-3.031 1.063-0.969 0.625-1.781 1.563-1.813 2.5-0.094 2.031-0.406 4.063-0.969 5.969-0.625 1.938-1.625 3.75-3 5.313zM12.031 26.844c0.156 0 0.219-0.094 0.219-0.25 0-0.188-0.063-0.281-0.219-0.281-1 0-1.75-0.781-1.75-1.75 0-0.188-0.094-0.281-0.25-0.281-0.188 0-0.313 0.094-0.313 0.281 0 1.25 1.031 2.281 2.313 2.281z"></path>
</svg>